<svg width="512" height="512" viewBox="0 0 512 512" fill="none" xmlns="http://www.w3.org/2000/svg">
  <!-- Background -->
  <rect width="512" height="512" rx="80" fill="url(#gradient)"/>
  
  <!-- Main Icon Design -->
  <g transform="translate(100, 100)">
    <!-- Letter 'S' for Shabanya -->
    <path d="M160 80C190 80 220 100 220 140C220 180 190 200 160 200H120V240H180C210 240 240 260 240 300C240 340 210 360 180 360H60C30 360 0 340 0 300V280H40V300C40 320 50 320 60 320H180C190 320 200 310 200 300C200 290 190 280 180 280H120C90 280 60 260 60 220V140C60 100 90 80 120 80H160ZM120 120C110 120 100 130 100 140V220C100 230 110 240 120 240H160C170 240 180 230 180 220V140C180 130 170 120 160 120H120Z" fill="white"/>
    
    <!-- Code brackets -->
    <path d="M280 100L260 120L280 140L300 160L280 180L260 160L240 140L260 120L280 100Z" fill="white" opacity="0.8"/>
    <path d="M40 100L60 120L40 140L20 160L40 180L60 160L80 140L60 120L40 100Z" fill="white" opacity="0.8"/>
  </g>
  
  <!-- Gradient Definition -->
  <defs>
    <linearGradient id="gradient" x1="0%" y1="0%" x2="100%" y2="100%">
      <stop offset="0%" style="stop-color:#2563eb;stop-opacity:1" />
      <stop offset="50%" style="stop-color:#7c3aed;stop-opacity:1" />
      <stop offset="100%" style="stop-color:#dc2626;stop-opacity:1" />
    </linearGradient>
  </defs>
</svg>